<?xml version="1.0"?>
<svg xmlns="http://www.w3.org/2000/svg" xmlns:xlink="http://www.w3.org/1999/xlink" version="1.1" id="Layer_1" x="0px" y="0px" viewBox="0 0 508 508" style="enable-background:new 0 0 508 508;" xml:space="preserve" width="512px" height="512px" class=""><g><g>
	<circle style="fill:#0A0504" cx="254" cy="254" r="254" data-original="#FD8469" class="" data-old_color="#FD8469"/>
	<path style="fill:#0A0504" d="M56.4,413.6C102.8,471.2,174,508,254,508s151.2-36.8,197.6-94.4H56.4z" data-original="#FD8469" class="" data-old_color="#FD8469"/>
</g><path style="fill:#8D4E1B" d="M443.2,423.2c2.8-3.2,5.6-6.4,8.4-10H56.4c2.8,3.2,5.6,6.8,8.4,10H443.2z" data-original="#F1543F" class="" data-old_color="#72431D"/><path style="fill:#FFFFFF" d="M405.6,172.8c0,18.4-14.8,33.2-33.2,33.2c-10.8,0-20.8-5.2-26.8-13.6c-4.8,4.4-11.2,7.2-18,7.2  c-8,0-14.8-3.6-20-8.8c-4.8,5.2-12,8.8-20,8.8s-14.8-3.6-20-8.8c-4.8,5.2-12,8.8-20,8.8s-14.8-3.6-20-8.8c-4.8,5.2-12,8.8-20,8.8  s-14.8-3.6-20-8.8c-4.8,5.2-12,8.8-20,8.8s-14.8-3.6-20-8.8c-4.8,5.2-12,8.8-20,8.8c-14.8,0-26.8-12-26.8-26.8  c0-13.6,10-24.8,23.2-26.8c2.8-11.6,13.6-20.4,26-20.4c3.6,0,6.8,0.8,9.6,2c3.6-10.8,13.6-18.4,25.6-18.4c3.2,0,6.4,0.8,9.6,1.6  c2.8-12,13.6-20.8,26.4-20.8c5.6,0,10.8,1.6,15.2,4.8c3.2-11.2,13.6-19.2,25.6-19.2c12.8,0,23.2,8.8,26,20.4c4.8-3.6,10.4-6,16.8-6  c12.8,0,23.6,9.2,26.4,21.2c3.2-1.2,6.8-2,10.4-2c14.8,0,26.8,12,26.8,26.8c0,1.2,0,2.4-0.4,3.6c0.8,0,1.6,0,2.8,0  C390.8,139.6,405.6,154.4,405.6,172.8z" data-original="#FFFFFF" class=""/><path style="fill:#94A5B7" d="M384.8,365.6l24.8-166.8H98.4l24.8,166.8c0.8,5.6,5.6,9.6,10.8,9.6h240  C379.6,374.8,384,370.8,384.8,365.6z" data-original="#2B3B4E" class="active-path" data-old_color="#8696A7"/><g>
	<path style="fill:#D2DDE6" d="M407.6,220.8H100.4c-12,0-22-10-22-22l0,0c0-12,10-22,22-22h307.2c12,0,22,10,22,22l0,0   C429.6,210.8,420,220.8,407.6,220.8z" data-original="#324A5E" class="" data-old_color="#324A5E"/>
	<circle style="fill:#D2DDE6" cx="326.4" cy="374.8" r="38.4" data-original="#324A5E" class="" data-old_color="#324A5E"/>
</g><circle style="fill:#443B40" cx="326.4" cy="374.8" r="21.6" data-original="#E6E9EE" class="" data-old_color="#5B4C54"/><circle style="fill:#D2DDE6" cx="181.6" cy="374.8" r="38.4" data-original="#324A5E" class="" data-old_color="#324A5E"/><circle style="fill:#443B40" cx="181.6" cy="374.8" r="21.6" data-original="#E6E9EE" class="" data-old_color="#5B4C54"/></g> </svg>
