<?xml version="1.0"?>
<svg xmlns="http://www.w3.org/2000/svg" xmlns:xlink="http://www.w3.org/1999/xlink" version="1.1" id="Capa_1" x="0px" y="0px" width="512px" height="512px" viewBox="0 0 455.971 455.971" style="enable-background:new 0 0 455.971 455.971;" xml:space="preserve" class=""><g><g>
	<g>
		<path d="M436.37,301.589c-9.858-8.564-26.2-27.96-45.208-52.301l-16.49-65.458l-30.749-47.752l-1.118,48.931    C301.384,128.438,261.35,70.757,252.333,57.73V47.101C252.333,34.091,241.79,0,228.781,0c-13.01,0-23.551,34.091-23.551,47.101    v8.321c-3.737,5.416-47.701,69.044-93.05,130.939l-1.154-50.292l-30.749,47.754l-16.974,67.371    C44.949,274.61,29.195,293.237,19.6,301.581c-39.902,34.672,30.663,114.488,30.663,114.488l137.343-43.177l-13.103,22.241    l30.923,7.182c0.15,1.779,0.479,3.482,0.996,5.105l-59.41,47.9l34.668-5.237l29.767-11.125c0,0,1.633,17.012,17.334,17.012    s16.543-17.012,16.543-17.012l28.966,11.125l34.668,5.237l-58.136-46.866c0.753-2.061,1.202-4.24,1.358-6.524l29.282-6.797    l-13.101-22.241l137.343,43.177C405.705,416.069,476.276,336.253,436.37,301.589z" data-original="#000000" class="active-path" data-old_color="#00DD00" fill="#FF0000"/>
	</g>
</g></g> </svg>
